<svg width="260" height="48" viewBox="0 0 260 48" fill="none" xmlns="http://www.w3.org/2000/svg">
<g clip-path="url(#clip0_1_4)">
<path d="M24 48C37.2548 48 48 37.2548 48 24C48 10.7452 37.2548 0 24 0C10.7452 0 0 10.7452 0 24C0 37.2548 10.7452 48 24 48Z" fill="#10B981"/>
<path d="M26 12L18 26H24L22 36L30 22H24L26 12Z" fill="white"/>
</g>
<path d="M76.1591 13H74.0455C73.9205 12.392 73.7017 11.858 73.3892 11.3977C73.0824 10.9375 72.7074 10.5511 72.2642 10.2386C71.8267 9.92045 71.3409 9.68182 70.8068 9.52273C70.2727 9.36364 69.7159 9.28409 69.1364 9.28409C68.0795 9.28409 67.1222 9.55114 66.2642 10.0852C65.4119 10.6193 64.733 11.4062 64.2273 12.446C63.7273 13.4858 63.4773 14.7614 63.4773 16.2727C63.4773 17.7841 63.7273 19.0597 64.2273 20.0994C64.733 21.1392 65.4119 21.9261 66.2642 22.4602C67.1222 22.9943 68.0795 23.2614 69.1364 23.2614C69.7159 23.2614 70.2727 23.1818 70.8068 23.0227C71.3409 22.8636 71.8267 22.6278 72.2642 22.3153C72.7074 21.9972 73.0824 21.608 73.3892 21.1477C73.7017 20.6818 73.9205 20.1477 74.0455 19.5455H76.1591C76 20.4375 75.7102 21.2358 75.2898 21.9403C74.8693 22.6449 74.3466 23.2443 73.7216 23.7386C73.0966 24.2273 72.3949 24.5994 71.6165 24.8551C70.8438 25.1108 70.017 25.2386 69.1364 25.2386C67.6477 25.2386 66.3239 24.875 65.1648 24.1477C64.0057 23.4205 63.0938 22.3864 62.429 21.0455C61.7642 19.7045 61.4318 18.1136 61.4318 16.2727C61.4318 14.4318 61.7642 12.8409 62.429 11.5C63.0938 10.1591 64.0057 9.125 65.1648 8.39773C66.3239 7.67045 67.6477 7.30682 69.1364 7.30682C70.017 7.30682 70.8438 7.43466 71.6165 7.69034C72.3949 7.94602 73.0966 8.32102 73.7216 8.81534C74.3466 9.30398 74.8693 9.90057 75.2898 10.6051C75.7102 11.304 76 12.1023 76.1591 13ZM80.7835 17.125V25H78.7722V7.54545H80.7835V13.9545H80.954C81.2608 13.2784 81.721 12.7415 82.3347 12.3438C82.954 11.9403 83.7778 11.7386 84.8062 11.7386C85.6983 11.7386 86.4795 11.9176 87.15 12.2756C87.8205 12.6278 88.3403 13.1705 88.7097 13.9034C89.0847 14.6307 89.2722 15.5568 89.2722 16.6818V25H87.2608V16.8182C87.2608 15.7784 86.9909 14.9744 86.4511 14.4062C85.917 13.8324 85.1756 13.5455 84.2267 13.5455C83.5676 13.5455 82.9767 13.6847 82.454 13.9631C81.9369 14.2415 81.5278 14.6477 81.2267 15.1818C80.9312 15.7159 80.7835 16.3636 80.7835 17.125ZM96.2744 25.3068C95.4449 25.3068 94.692 25.1506 94.0159 24.8381C93.3398 24.5199 92.8028 24.0625 92.4051 23.4659C92.0074 22.8636 91.8085 22.1364 91.8085 21.2841C91.8085 20.5341 91.9562 19.9261 92.2517 19.4602C92.5472 18.9886 92.942 18.6193 93.4364 18.3523C93.9307 18.0852 94.4761 17.8864 95.0727 17.7557C95.675 17.6193 96.2801 17.5114 96.8881 17.4318C97.6835 17.3295 98.3284 17.2528 98.8227 17.2017C99.3227 17.1449 99.6864 17.0511 99.9136 16.9205C100.147 16.7898 100.263 16.5625 100.263 16.2386V16.1705C100.263 15.3295 100.033 14.6761 99.5727 14.2102C99.1182 13.7443 98.4278 13.5114 97.5017 13.5114C96.5415 13.5114 95.7886 13.7216 95.2432 14.142C94.6977 14.5625 94.3142 15.0114 94.0926 15.4886L92.1835 14.8068C92.5244 14.0114 92.979 13.392 93.5472 12.9489C94.121 12.5 94.746 12.1875 95.4222 12.0114C96.104 11.8295 96.7744 11.7386 97.4335 11.7386C97.854 11.7386 98.3369 11.7898 98.8824 11.892C99.4335 11.9886 99.9648 12.1903 100.476 12.4972C100.993 12.804 101.422 13.267 101.763 13.8864C102.104 14.5057 102.274 15.3352 102.274 16.375V25H100.263V23.2273H100.161C100.024 23.5114 99.7972 23.8153 99.479 24.1392C99.1608 24.4631 98.7375 24.7386 98.2091 24.9659C97.6807 25.1932 97.0358 25.3068 96.2744 25.3068ZM96.5812 23.5C97.3767 23.5 98.0472 23.3438 98.5926 23.0312C99.1437 22.7188 99.5585 22.3153 99.8369 21.821C100.121 21.3267 100.263 20.8068 100.263 20.2614V18.4205C100.178 18.5227 99.9903 18.6165 99.7006 18.7017C99.4165 18.7812 99.0869 18.8523 98.7119 18.9148C98.3426 18.9716 97.9818 19.0227 97.6295 19.0682C97.283 19.108 97.0017 19.142 96.7858 19.1705C96.2631 19.2386 95.7744 19.3494 95.3199 19.5028C94.871 19.6506 94.5074 19.875 94.229 20.1761C93.9562 20.4716 93.8199 20.875 93.8199 21.3864C93.8199 22.0852 94.0784 22.6136 94.5955 22.9716C95.1182 23.3239 95.7801 23.5 96.5812 23.5ZM105.416 25V11.9091H107.359V13.8864H107.495C107.734 13.2386 108.166 12.7131 108.791 12.3097C109.416 11.9062 110.12 11.7045 110.905 11.7045C111.052 11.7045 111.237 11.7074 111.459 11.7131C111.68 11.7187 111.848 11.7273 111.961 11.7386V13.7841C111.893 13.767 111.737 13.7415 111.493 13.7074C111.254 13.6676 111.001 13.6477 110.734 13.6477C110.098 13.6477 109.53 13.7812 109.03 14.0483C108.535 14.3097 108.143 14.6733 107.853 15.1392C107.569 15.5994 107.427 16.125 107.427 16.7159V25H105.416ZM118.702 30.1818C117.73 30.1818 116.895 30.0568 116.196 29.8068C115.497 29.5625 114.915 29.2386 114.449 28.8352C113.988 28.4375 113.622 28.0114 113.349 27.5568L114.952 26.4318C115.133 26.6705 115.363 26.9432 115.642 27.25C115.92 27.5625 116.301 27.8324 116.784 28.0597C117.273 28.2926 117.912 28.4091 118.702 28.4091C119.758 28.4091 120.631 28.1534 121.318 27.642C122.006 27.1307 122.349 26.3295 122.349 25.2386V22.5795H122.179C122.031 22.8182 121.821 23.1136 121.548 23.4659C121.281 23.8125 120.895 24.1222 120.389 24.3949C119.889 24.6619 119.213 24.7955 118.361 24.7955C117.304 24.7955 116.355 24.5455 115.514 24.0455C114.679 23.5455 114.017 22.8182 113.528 21.8636C113.045 20.9091 112.804 19.75 112.804 18.3864C112.804 17.0455 113.04 15.8778 113.511 14.8835C113.983 13.8835 114.639 13.1108 115.48 12.5653C116.321 12.0142 117.292 11.7386 118.395 11.7386C119.247 11.7386 119.923 11.8807 120.423 12.1648C120.929 12.4432 121.315 12.7614 121.582 13.1193C121.855 13.4716 122.065 13.7614 122.213 13.9886H122.417V11.9091H124.361V25.375C124.361 26.5 124.105 27.4148 123.594 28.1193C123.088 28.8295 122.406 29.3494 121.548 29.679C120.696 30.0142 119.747 30.1818 118.702 30.1818ZM118.633 22.9886C119.44 22.9886 120.122 22.804 120.679 22.4347C121.236 22.0653 121.659 21.5341 121.949 20.8409C122.238 20.1477 122.383 19.3182 122.383 18.3523C122.383 17.4091 122.241 16.5767 121.957 15.8551C121.673 15.1335 121.253 14.5682 120.696 14.1591C120.139 13.75 119.452 13.5455 118.633 13.5455C117.781 13.5455 117.071 13.7614 116.503 14.1932C115.94 14.625 115.517 15.2045 115.233 15.9318C114.954 16.6591 114.815 17.4659 114.815 18.3523C114.815 19.2614 114.957 20.0653 115.241 20.7642C115.531 21.4574 115.957 22.0028 116.52 22.4006C117.088 22.7926 117.792 22.9886 118.633 22.9886ZM133.001 25.2727C131.74 25.2727 130.652 24.9943 129.737 24.4375C128.828 23.875 128.126 23.0909 127.632 22.0852C127.143 21.0739 126.899 19.8977 126.899 18.5568C126.899 17.2159 127.143 16.0341 127.632 15.0114C128.126 13.983 128.814 13.1818 129.695 12.608C130.581 12.0284 131.615 11.7386 132.797 11.7386C133.479 11.7386 134.152 11.8523 134.817 12.0795C135.482 12.3068 136.087 12.6761 136.632 13.1875C137.178 13.6932 137.612 14.3636 137.936 15.1989C138.26 16.0341 138.422 17.0625 138.422 18.2841V19.1364H128.331V17.3977H136.376C136.376 16.6591 136.229 16 135.933 15.4205C135.643 14.8409 135.229 14.3835 134.689 14.0483C134.155 13.7131 133.524 13.5455 132.797 13.5455C131.996 13.5455 131.303 13.7443 130.717 14.142C130.138 14.5341 129.692 15.0455 129.379 15.6761C129.067 16.3068 128.911 16.983 128.911 17.7045V18.8636C128.911 19.8523 129.081 20.6903 129.422 21.3778C129.768 22.0597 130.249 22.5795 130.862 22.9375C131.476 23.2898 132.189 23.4659 133.001 23.4659C133.53 23.4659 134.007 23.392 134.433 23.2443C134.865 23.0909 135.237 22.8636 135.55 22.5625C135.862 22.2557 136.104 21.875 136.274 21.4205L138.217 21.9659C138.013 22.625 137.669 23.2045 137.186 23.7045C136.703 24.1989 136.107 24.5852 135.396 24.8636C134.686 25.1364 133.888 25.2727 133.001 25.2727Z" fill="#101828"/>
<path d="M154.659 15H152.545C152.42 14.392 152.202 13.858 151.889 13.3977C151.582 12.9375 151.207 12.5511 150.764 12.2386C150.327 11.9205 149.841 11.6818 149.307 11.5227C148.773 11.3636 148.216 11.2841 147.636 11.2841C146.58 11.2841 145.622 11.5511 144.764 12.0852C143.912 12.6193 143.233 13.4062 142.727 14.446C142.227 15.4858 141.977 16.7614 141.977 18.2727C141.977 19.7841 142.227 21.0597 142.727 22.0994C143.233 23.1392 143.912 23.9261 144.764 24.4602C145.622 24.9943 146.58 25.2614 147.636 25.2614C148.216 25.2614 148.773 25.1818 149.307 25.0227C149.841 24.8636 150.327 24.6278 150.764 24.3153C151.207 23.9972 151.582 23.608 151.889 23.1477C152.202 22.6818 152.42 22.1477 152.545 21.5455H154.659C154.5 22.4375 154.21 23.2358 153.79 23.9403C153.369 24.6449 152.847 25.2443 152.222 25.7386C151.597 26.2273 150.895 26.5994 150.116 26.8551C149.344 27.1108 148.517 27.2386 147.636 27.2386C146.148 27.2386 144.824 26.875 143.665 26.1477C142.506 25.4205 141.594 24.3864 140.929 23.0455C140.264 21.7045 139.932 20.1136 139.932 18.2727C139.932 16.4318 140.264 14.8409 140.929 13.5C141.594 12.1591 142.506 11.125 143.665 10.3977C144.824 9.67045 146.148 9.30682 147.636 9.30682C148.517 9.30682 149.344 9.43466 150.116 9.69034C150.895 9.94602 151.597 10.321 152.222 10.8153C152.847 11.304 153.369 11.9006 153.79 12.6051C154.21 13.304 154.5 14.1023 154.659 15ZM161.124 27.3068C160.295 27.3068 159.542 27.1506 158.866 26.8381C158.19 26.5199 157.653 26.0625 157.255 25.4659C156.857 24.8636 156.659 24.1364 156.659 23.2841C156.659 22.5341 156.806 21.9261 157.102 21.4602C157.397 20.9886 157.792 20.6193 158.286 20.3523C158.781 20.0852 159.326 19.8864 159.923 19.7557C160.525 19.6193 161.13 19.5114 161.738 19.4318C162.534 19.3295 163.178 19.2528 163.673 19.2017C164.173 19.1449 164.536 19.0511 164.764 18.9205C164.997 18.7898 165.113 18.5625 165.113 18.2386V18.1705C165.113 17.3295 164.883 16.6761 164.423 16.2102C163.968 15.7443 163.278 15.5114 162.352 15.5114C161.391 15.5114 160.639 15.7216 160.093 16.142C159.548 16.5625 159.164 17.0114 158.943 17.4886L157.034 16.8068C157.374 16.0114 157.829 15.392 158.397 14.9489C158.971 14.5 159.596 14.1875 160.272 14.0114C160.954 13.8295 161.624 13.7386 162.284 13.7386C162.704 13.7386 163.187 13.7898 163.732 13.892C164.284 13.9886 164.815 14.1903 165.326 14.4972C165.843 14.804 166.272 15.267 166.613 15.8864C166.954 16.5057 167.124 17.3352 167.124 18.375V27H165.113V25.2273H165.011C164.874 25.5114 164.647 25.8153 164.329 26.1392C164.011 26.4631 163.587 26.7386 163.059 26.9659C162.531 27.1932 161.886 27.3068 161.124 27.3068ZM161.431 25.5C162.227 25.5 162.897 25.3438 163.443 25.0312C163.994 24.7188 164.409 24.3153 164.687 23.821C164.971 23.3267 165.113 22.8068 165.113 22.2614V20.4205C165.028 20.5227 164.84 20.6165 164.551 20.7017C164.266 20.7812 163.937 20.8523 163.562 20.9148C163.193 20.9716 162.832 21.0227 162.48 21.0682C162.133 21.108 161.852 21.142 161.636 21.1705C161.113 21.2386 160.624 21.3494 160.17 21.5028C159.721 21.6506 159.357 21.875 159.079 22.1761C158.806 22.4716 158.67 22.875 158.67 23.3864C158.67 24.0852 158.928 24.6136 159.445 24.9716C159.968 25.3239 160.63 25.5 161.431 25.5ZM179.539 16.8409L177.732 17.3523C177.618 17.0511 177.451 16.7585 177.229 16.4744C177.013 16.1847 176.718 15.946 176.343 15.7585C175.968 15.571 175.487 15.4773 174.902 15.4773C174.101 15.4773 173.434 15.6619 172.899 16.0312C172.371 16.3949 172.107 16.858 172.107 17.4205C172.107 17.9205 172.289 18.3153 172.652 18.6051C173.016 18.8949 173.584 19.1364 174.357 19.3295L176.3 19.8068C177.47 20.0909 178.343 20.5256 178.916 21.1108C179.49 21.6903 179.777 22.4375 179.777 23.3523C179.777 24.1023 179.561 24.7727 179.13 25.3636C178.703 25.9545 178.107 26.4205 177.34 26.7614C176.573 27.1023 175.681 27.2727 174.664 27.2727C173.328 27.2727 172.223 26.983 171.348 26.4034C170.473 25.8239 169.919 24.9773 169.686 23.8636L171.595 23.3864C171.777 24.0909 172.121 24.6193 172.627 24.9716C173.138 25.3239 173.806 25.5 174.63 25.5C175.567 25.5 176.311 25.3011 176.862 24.9034C177.419 24.5 177.698 24.017 177.698 23.4545C177.698 23 177.539 22.6193 177.22 22.3125C176.902 22 176.414 21.767 175.755 21.6136L173.573 21.1023C172.374 20.8182 171.493 20.3778 170.931 19.7812C170.374 19.179 170.095 18.4261 170.095 17.5227C170.095 16.7841 170.303 16.1307 170.718 15.5625C171.138 14.9943 171.709 14.5483 172.431 14.2244C173.158 13.9006 173.982 13.7386 174.902 13.7386C176.198 13.7386 177.215 14.0227 177.953 14.5909C178.698 15.1591 179.226 15.9091 179.539 16.8409ZM187.968 13.9091V15.6136H181.184V13.9091H187.968ZM183.162 10.7727H185.173V23.25C185.173 23.8182 185.255 24.2443 185.42 24.5284C185.591 24.8068 185.807 24.9943 186.068 25.0909C186.335 25.1818 186.616 25.2273 186.912 25.2273C187.133 25.2273 187.315 25.2159 187.457 25.1932C187.599 25.1648 187.713 25.142 187.798 25.125L188.207 26.9318C188.071 26.983 187.88 27.0341 187.636 27.0852C187.392 27.142 187.082 27.1705 186.707 27.1705C186.139 27.1705 185.582 27.0483 185.037 26.804C184.497 26.5597 184.048 26.1875 183.69 25.6875C183.338 25.1875 183.162 24.5568 183.162 23.7955V10.7727Z" fill="#009966"/>
<path d="M61.0568 44V35.2727H66.2898V36.2102H62.1136V39.1591H65.8977V40.0966H62.1136V44H61.0568ZM68.3998 44V35.2727H69.4566V43.0625H73.5134V44H68.3998ZM75.4498 44V35.2727H80.7168V36.2102H76.5066V39.1591H80.4441V40.0966H76.5066V43.0625H80.785V44H75.4498ZM82.9217 44V35.2727H88.1887V36.2102H83.9785V39.1591H87.916V40.0966H83.9785V43.0625H88.2569V44H82.9217ZM89.9163 36.2102V35.2727H96.4617V36.2102H93.7174V44H92.6606V36.2102H89.9163ZM102.068 44V35.2727H107.335V36.2102H103.125V39.1591H107.062V40.0966H103.125V43.0625H107.403V44H102.068ZM109.54 35.2727H110.801L113.767 42.517H113.869L116.835 35.2727H118.096V44H117.108V37.3693H117.023L114.295 44H113.341L110.613 37.3693H110.528V44H109.54V35.2727ZM121.572 35.2727V44H120.515V35.2727H121.572ZM128.764 37.4545C128.713 37.0227 128.505 36.6875 128.142 36.4489C127.778 36.2102 127.332 36.0909 126.804 36.0909C126.417 36.0909 126.079 36.1534 125.789 36.2784C125.503 36.4034 125.278 36.5753 125.116 36.794C124.957 37.0128 124.878 37.2614 124.878 37.5398C124.878 37.7727 124.933 37.973 125.044 38.1406C125.157 38.3054 125.302 38.4432 125.478 38.554C125.655 38.6619 125.839 38.7514 126.032 38.8224C126.226 38.8906 126.403 38.946 126.565 38.9886L127.451 39.2273C127.679 39.2869 127.932 39.3693 128.21 39.4744C128.491 39.5795 128.76 39.723 129.015 39.9048C129.274 40.0838 129.487 40.3139 129.655 40.5952C129.822 40.8764 129.906 41.2216 129.906 41.6307C129.906 42.1023 129.782 42.5284 129.535 42.9091C129.291 43.2898 128.933 43.5923 128.461 43.8168C127.993 44.0412 127.423 44.1534 126.753 44.1534C126.128 44.1534 125.586 44.0526 125.129 43.8509C124.674 43.6491 124.316 43.3679 124.055 43.0071C123.797 42.6463 123.65 42.2273 123.616 41.75H124.707C124.736 42.0795 124.846 42.3523 125.039 42.5682C125.236 42.7812 125.483 42.9403 125.781 43.0455C126.082 43.1477 126.406 43.1989 126.753 43.1989C127.156 43.1989 127.518 43.1335 127.839 43.0028C128.16 42.8693 128.414 42.6847 128.602 42.4489C128.789 42.2102 128.883 41.9318 128.883 41.6136C128.883 41.3239 128.802 41.0881 128.64 40.9062C128.478 40.7244 128.265 40.5767 128.001 40.4631C127.737 40.3494 127.451 40.25 127.145 40.1648L126.071 39.858C125.389 39.6619 124.849 39.3821 124.451 39.0185C124.054 38.6548 123.855 38.179 123.855 37.5909C123.855 37.1023 123.987 36.6761 124.251 36.3125C124.518 35.946 124.876 35.6619 125.325 35.4602C125.777 35.2557 126.281 35.1534 126.838 35.1534C127.4 35.1534 127.9 35.2543 128.338 35.456C128.775 35.6548 129.122 35.9276 129.378 36.2741C129.636 36.6207 129.772 37.0142 129.787 37.4545H128.764ZM136.716 37.4545C136.665 37.0227 136.458 36.6875 136.094 36.4489C135.73 36.2102 135.284 36.0909 134.756 36.0909C134.37 36.0909 134.032 36.1534 133.742 36.2784C133.455 36.4034 133.23 36.5753 133.069 36.794C132.909 37.0128 132.83 37.2614 132.83 37.5398C132.83 37.7727 132.885 37.973 132.996 38.1406C133.11 38.3054 133.255 38.4432 133.431 38.554C133.607 38.6619 133.792 38.7514 133.985 38.8224C134.178 38.8906 134.355 38.946 134.517 38.9886L135.404 39.2273C135.631 39.2869 135.884 39.3693 136.162 39.4744C136.444 39.5795 136.712 39.723 136.968 39.9048C137.226 40.0838 137.439 40.3139 137.607 40.5952C137.775 40.8764 137.858 41.2216 137.858 41.6307C137.858 42.1023 137.735 42.5284 137.488 42.9091C137.243 43.2898 136.885 43.5923 136.414 43.8168C135.945 44.0412 135.375 44.1534 134.705 44.1534C134.08 44.1534 133.539 44.0526 133.081 43.8509C132.627 43.6491 132.269 43.3679 132.007 43.0071C131.749 42.6463 131.603 42.2273 131.569 41.75H132.659C132.688 42.0795 132.799 42.3523 132.992 42.5682C133.188 42.7812 133.435 42.9403 133.733 43.0455C134.034 43.1477 134.358 43.1989 134.705 43.1989C135.108 43.1989 135.471 43.1335 135.792 43.0028C136.113 42.8693 136.367 42.6847 136.554 42.4489C136.742 42.2102 136.836 41.9318 136.836 41.6136C136.836 41.3239 136.755 41.0881 136.593 40.9062C136.431 40.7244 136.218 40.5767 135.953 40.4631C135.689 40.3494 135.404 40.25 135.097 40.1648L134.023 39.858C133.341 39.6619 132.801 39.3821 132.404 39.0185C132.006 38.6548 131.807 38.179 131.807 37.5909C131.807 37.1023 131.939 36.6761 132.203 36.3125C132.471 35.946 132.828 35.6619 133.277 35.4602C133.729 35.2557 134.233 35.1534 134.79 35.1534C135.353 35.1534 135.853 35.2543 136.29 35.456C136.728 35.6548 137.074 35.9276 137.33 36.2741C137.588 36.6207 137.725 37.0142 137.739 37.4545H136.716ZM140.953 35.2727V44H139.896V35.2727H140.953ZM150.735 39.6364C150.735 40.5568 150.569 41.3523 150.237 42.0227C149.904 42.6932 149.448 43.2102 148.869 43.5739C148.289 43.9375 147.627 44.1193 146.883 44.1193C146.139 44.1193 145.477 43.9375 144.897 43.5739C144.318 43.2102 143.862 42.6932 143.529 42.0227C143.197 41.3523 143.031 40.5568 143.031 39.6364C143.031 38.7159 143.197 37.9205 143.529 37.25C143.862 36.5795 144.318 36.0625 144.897 35.6989C145.477 35.3352 146.139 35.1534 146.883 35.1534C147.627 35.1534 148.289 35.3352 148.869 35.6989C149.448 36.0625 149.904 36.5795 150.237 37.25C150.569 37.9205 150.735 38.7159 150.735 39.6364ZM149.713 39.6364C149.713 38.8807 149.586 38.2429 149.333 37.723C149.083 37.2031 148.744 36.8097 148.315 36.5426C147.889 36.2756 147.411 36.142 146.883 36.142C146.355 36.142 145.876 36.2756 145.447 36.5426C145.021 36.8097 144.681 37.2031 144.428 37.723C144.178 38.2429 144.053 38.8807 144.053 39.6364C144.053 40.392 144.178 41.0298 144.428 41.5497C144.681 42.0696 145.021 42.4631 145.447 42.7301C145.876 42.9972 146.355 43.1307 146.883 43.1307C147.411 43.1307 147.889 42.9972 148.315 42.7301C148.744 42.4631 149.083 42.0696 149.333 41.5497C149.586 41.0298 149.713 40.392 149.713 39.6364ZM159.733 35.2727V44H158.71L153.954 37.1477H153.869V44H152.812V35.2727H153.835L158.608 42.142H158.693V35.2727H159.733ZM166.92 37.4545C166.869 37.0227 166.662 36.6875 166.298 36.4489C165.934 36.2102 165.488 36.0909 164.96 36.0909C164.574 36.0909 164.236 36.1534 163.946 36.2784C163.659 36.4034 163.434 36.5753 163.272 36.794C163.113 37.0128 163.034 37.2614 163.034 37.5398C163.034 37.7727 163.089 37.973 163.2 38.1406C163.314 38.3054 163.459 38.4432 163.635 38.554C163.811 38.6619 163.995 38.7514 164.189 38.8224C164.382 38.8906 164.559 38.946 164.721 38.9886L165.608 39.2273C165.835 39.2869 166.088 39.3693 166.366 39.4744C166.647 39.5795 166.916 39.723 167.172 39.9048C167.43 40.0838 167.643 40.3139 167.811 40.5952C167.978 40.8764 168.062 41.2216 168.062 41.6307C168.062 42.1023 167.939 42.5284 167.691 42.9091C167.447 43.2898 167.089 43.5923 166.618 43.8168C166.149 44.0412 165.579 44.1534 164.909 44.1534C164.284 44.1534 163.743 44.0526 163.285 43.8509C162.831 43.6491 162.473 43.3679 162.211 43.0071C161.953 42.6463 161.807 42.2273 161.772 41.75H162.863C162.892 42.0795 163.003 42.3523 163.196 42.5682C163.392 42.7812 163.639 42.9403 163.937 43.0455C164.238 43.1477 164.562 43.1989 164.909 43.1989C165.312 43.1989 165.674 43.1335 165.995 43.0028C166.316 42.8693 166.571 42.6847 166.758 42.4489C166.946 42.2102 167.039 41.9318 167.039 41.6136C167.039 41.3239 166.959 41.0881 166.797 40.9062C166.635 40.7244 166.422 40.5767 166.157 40.4631C165.893 40.3494 165.608 40.25 165.301 40.1648L164.227 39.858C163.545 39.6619 163.005 39.3821 162.608 39.0185C162.21 38.6548 162.011 38.179 162.011 37.5909C162.011 37.1023 162.143 36.6761 162.407 36.3125C162.674 35.946 163.032 35.6619 163.481 35.4602C163.933 35.2557 164.437 35.1534 164.994 35.1534C165.557 35.1534 166.057 35.2543 166.494 35.456C166.932 35.6548 167.278 35.9276 167.534 36.2741C167.792 36.6207 167.929 37.0142 167.943 37.4545H166.92ZM173.775 44V35.2727H179.008V36.2102H174.832V39.1591H178.616V40.0966H174.832V44H173.775ZM188.481 39.6364C188.481 40.5568 188.315 41.3523 187.983 42.0227C187.65 42.6932 187.194 43.2102 186.615 43.5739C186.035 43.9375 185.373 44.1193 184.629 44.1193C183.885 44.1193 183.223 43.9375 182.643 43.5739C182.064 43.2102 181.608 42.6932 181.275 42.0227C180.943 41.3523 180.777 40.5568 180.777 39.6364C180.777 38.7159 180.943 37.9205 181.275 37.25C181.608 36.5795 182.064 36.0625 182.643 35.6989C183.223 35.3352 183.885 35.1534 184.629 35.1534C185.373 35.1534 186.035 35.3352 186.615 35.6989C187.194 36.0625 187.65 36.5795 187.983 37.25C188.315 37.9205 188.481 38.7159 188.481 39.6364ZM187.459 39.6364C187.459 38.8807 187.332 38.2429 187.079 37.723C186.829 37.2031 186.49 36.8097 186.061 36.5426C185.635 36.2756 185.158 36.142 184.629 36.142C184.101 36.142 183.622 36.2756 183.193 36.5426C182.767 36.8097 182.427 37.2031 182.175 37.723C181.925 38.2429 181.8 38.8807 181.8 39.6364C181.8 40.392 181.925 41.0298 182.175 41.5497C182.427 42.0696 182.767 42.4631 183.193 42.7301C183.622 42.9972 184.101 43.1307 184.629 43.1307C185.158 43.1307 185.635 42.9972 186.061 42.7301C186.49 42.4631 186.829 42.0696 187.079 41.5497C187.332 41.0298 187.459 40.392 187.459 39.6364ZM190.558 44V35.2727H193.507C194.189 35.2727 194.749 35.3892 195.186 35.6222C195.624 35.8523 195.948 36.169 196.158 36.5724C196.368 36.9759 196.473 37.4347 196.473 37.9489C196.473 38.4631 196.368 38.919 196.158 39.3168C195.948 39.7145 195.625 40.027 195.19 40.2543C194.756 40.4787 194.2 40.5909 193.524 40.5909H191.138V39.6364H193.49C193.956 39.6364 194.331 39.5682 194.615 39.4318C194.902 39.2955 195.11 39.1023 195.237 38.8523C195.368 38.5994 195.433 38.2983 195.433 37.9489C195.433 37.5994 195.368 37.294 195.237 37.0327C195.107 36.7713 194.898 36.5696 194.611 36.4276C194.324 36.2827 193.945 36.2102 193.473 36.2102H191.615V44H190.558ZM194.666 40.0795L196.814 44H195.587L193.473 40.0795H194.666ZM198.534 44V35.2727H203.801V36.2102H199.591V39.1591H203.528V40.0966H199.591V43.0625H203.869V44H198.534ZM213.029 38H211.972C211.909 37.696 211.8 37.429 211.644 37.1989C211.49 36.9688 211.303 36.7756 211.081 36.6193C210.863 36.4602 210.62 36.3409 210.353 36.2614C210.086 36.1818 209.807 36.142 209.517 36.142C208.989 36.142 208.51 36.2756 208.081 36.5426C207.655 36.8097 207.316 37.2031 207.063 37.723C206.813 38.2429 206.688 38.8807 206.688 39.6364C206.688 40.392 206.813 41.0298 207.063 41.5497C207.316 42.0696 207.655 42.4631 208.081 42.7301C208.51 42.9972 208.989 43.1307 209.517 43.1307C209.807 43.1307 210.086 43.0909 210.353 43.0114C210.62 42.9318 210.863 42.8139 211.081 42.6577C211.303 42.4986 211.49 42.304 211.644 42.0739C211.8 41.8409 211.909 41.5739 211.972 41.2727H213.029C212.949 41.7187 212.804 42.1179 212.594 42.4702C212.384 42.8224 212.123 43.1222 211.81 43.3693C211.498 43.6136 211.147 43.7997 210.757 43.9276C210.371 44.0554 209.958 44.1193 209.517 44.1193C208.773 44.1193 208.111 43.9375 207.532 43.5739C206.952 43.2102 206.496 42.6932 206.164 42.0227C205.831 41.3523 205.665 40.5568 205.665 39.6364C205.665 38.7159 205.831 37.9205 206.164 37.25C206.496 36.5795 206.952 36.0625 207.532 35.6989C208.111 35.3352 208.773 35.1534 209.517 35.1534C209.958 35.1534 210.371 35.2173 210.757 35.3452C211.147 35.473 211.498 35.6605 211.81 35.9077C212.123 36.152 212.384 36.4503 212.594 36.8026C212.804 37.152 212.949 37.5511 213.029 38ZM215.394 44H214.287L217.491 35.2727H218.582L221.787 44H220.679L218.071 36.6534H218.002L215.394 44ZM215.804 40.5909H220.269V41.5284H215.804V40.5909ZM228.219 37.4545C228.167 37.0227 227.96 36.6875 227.596 36.4489C227.233 36.2102 226.787 36.0909 226.258 36.0909C225.872 36.0909 225.534 36.1534 225.244 36.2784C224.957 36.4034 224.733 36.5753 224.571 36.794C224.412 37.0128 224.332 37.2614 224.332 37.5398C224.332 37.7727 224.388 37.973 224.498 38.1406C224.612 38.3054 224.757 38.4432 224.933 38.554C225.109 38.6619 225.294 38.7514 225.487 38.8224C225.68 38.8906 225.858 38.946 226.02 38.9886L226.906 39.2273C227.133 39.2869 227.386 39.3693 227.665 39.4744C227.946 39.5795 228.214 39.723 228.47 39.9048C228.729 40.0838 228.942 40.3139 229.109 40.5952C229.277 40.8764 229.361 41.2216 229.361 41.6307C229.361 42.1023 229.237 42.5284 228.99 42.9091C228.746 43.2898 228.388 43.5923 227.916 43.8168C227.447 44.0412 226.878 44.1534 226.207 44.1534C225.582 44.1534 225.041 44.0526 224.584 43.8509C224.129 43.6491 223.771 43.3679 223.51 43.0071C223.251 42.6463 223.105 42.2273 223.071 41.75H224.162C224.19 42.0795 224.301 42.3523 224.494 42.5682C224.69 42.7812 224.937 42.9403 225.236 43.0455C225.537 43.1477 225.861 43.1989 226.207 43.1989C226.611 43.1989 226.973 43.1335 227.294 43.0028C227.615 42.8693 227.869 42.6847 228.057 42.4489C228.244 42.2102 228.338 41.9318 228.338 41.6136C228.338 41.3239 228.257 41.0881 228.095 40.9062C227.933 40.7244 227.72 40.5767 227.456 40.4631C227.192 40.3494 226.906 40.25 226.599 40.1648L225.525 39.858C224.844 39.6619 224.304 39.3821 223.906 39.0185C223.508 38.6548 223.31 38.179 223.31 37.5909C223.31 37.1023 223.442 36.6761 223.706 36.3125C223.973 35.946 224.331 35.6619 224.78 35.4602C225.231 35.2557 225.736 35.1534 226.292 35.1534C226.855 35.1534 227.355 35.2543 227.792 35.456C228.23 35.6548 228.577 35.9276 228.832 36.2741C229.091 36.6207 229.227 37.0142 229.241 37.4545H228.219ZM230.921 36.2102V35.2727H237.466V36.2102H234.722V44H233.665V36.2102H230.921ZM240.454 35.2727V44H239.397V35.2727H240.454ZM249.794 35.2727V44H248.771L244.015 37.1477H243.93V44H242.873V35.2727H243.896L248.669 42.142H248.754V35.2727H249.794ZM258.174 38C258.081 37.7131 257.957 37.456 257.804 37.2287C257.653 36.9986 257.473 36.8026 257.262 36.6406C257.055 36.4787 256.819 36.3551 256.555 36.2699C256.291 36.1847 256.001 36.142 255.686 36.142C255.169 36.142 254.698 36.2756 254.275 36.5426C253.852 36.8097 253.515 37.2031 253.265 37.723C253.015 38.2429 252.89 38.8807 252.89 39.6364C252.89 40.392 253.017 41.0298 253.269 41.5497C253.522 42.0696 253.865 42.4631 254.296 42.7301C254.728 42.9972 255.214 43.1307 255.754 43.1307C256.254 43.1307 256.694 43.0241 257.075 42.8111C257.458 42.5952 257.757 42.2912 257.97 41.8991C258.186 41.5043 258.294 41.0398 258.294 40.5057L258.617 40.5739H255.992V39.6364H259.316V40.5739C259.316 41.2926 259.163 41.9176 258.856 42.4489C258.552 42.9801 258.132 43.392 257.595 43.6847C257.061 43.9744 256.447 44.1193 255.754 44.1193C254.981 44.1193 254.302 43.9375 253.717 43.5739C253.135 43.2102 252.68 42.6932 252.353 42.0227C252.029 41.3523 251.867 40.5568 251.867 39.6364C251.867 38.946 251.96 38.3253 252.144 37.7741C252.332 37.2202 252.596 36.7486 252.937 36.3594C253.278 35.9702 253.681 35.6719 254.147 35.4645C254.613 35.2571 255.126 35.1534 255.686 35.1534C256.146 35.1534 256.575 35.223 256.973 35.3622C257.373 35.4986 257.73 35.6932 258.042 35.946C258.358 36.196 258.62 36.4957 258.831 36.8452C259.041 37.1918 259.186 37.5767 259.265 38H258.174Z" fill="#6A7282"/>
<defs>
<clipPath id="clip0_1_4">
<rect width="48" height="48" fill="white"/>
</clipPath>
</defs>
</svg>
